#N canvas 629 29 863 929 10;
#X obj 401 893 dac~;
#X obj 482 375 osc~;
#X msg 388 286 0;
#X msg 512 245 370;
#X msg 522 265 400;
#X obj 237 220 clip 0 1;
#X obj 434 352 osc~;
#X obj 478 476 tgl 15 0 empty empty empty 17 7 0 10 -262144 -1 -1 1
1;
#X msg 320 286 1;
#X msg 482 185 460;
#X msg 492 205 300;
#X msg 502 225 340;
#X msg 532 285 438;
#X obj 401 701 *~ 0.2;
#X obj 466 400 *~;
#X obj 270 106 f;
#X obj 270 83 bng 15 250 50 0 empty empty empty 17 7 0 10 -262144 -1
-1;
#X msg 293 84 0;
#X obj 434 324 /;
#X obj 237 131 * 100;
#X obj 237 153 / 200;
#X obj 237 175 * 0.01;
#X obj 237 198 + 0.2;
#X obj 478 499 pack f f f f;
#X msg 478 524 1 \$2 \, \$4 \, \$3 \, \$2;
#X msg 588 524 0 \$2;
#X obj 588 500 pack f f;
#X obj 539 554 line~;
#X obj 466 578 *~;
#X obj 633 123 loadbang;
#X msg 547 475 0.262;
#X msg 633 475 900;
#X obj 320 24 r play;
#X obj 388 24 r stop;
#X obj 388 46 bng 15 250 50 0 empty empty empty 17 7 0 10 -262144 -1
-1;
#X obj 329 653 delwrite~ G01-del 15000;
#X obj 330 677 delread~ G01-del 125;
#X obj 520 656 delwrite~ G02-del 15000;
#X obj 520 680 delread~ G02-del 125;
#X obj 330 741 delwrite~ G03-del 15000;
#X obj 331 764 delread~ G03-del 125;
#X obj 518 743 delwrite~ G04-del 15000;
#X obj 519 767 delread~ G04-del 125;
#X obj 434 302 f;
#X obj 237 106 + 2;
#X obj 467 600 *~;
#X msg 501 432 50;
#X obj 370 858 *~ 0.8;
#X obj 437 858 *~ 0.8;
#X obj 482 140 random 6;
#X obj 482 162 sel 0 1 2 3 4 5;
#X obj 330 701 *~ 0.05;
#X obj 519 706 *~ 0.05;
#X obj 520 789 *~ 0.05;
#X obj 332 788 *~ 0.05;
#X obj 435 376 *~ 0.3;
#X obj 414 787 *~ 0.8;
#X obj 597 702 *~ 0.8;
#X msg 524 452 600;
#X obj 468 621 lop~ 500;
#X text 585 553 Envelope;
#X text 555 204 Freq;
#X text 214 80 Counter;
#X connect 1 0 14 1;
#X connect 2 0 7 0;
#X connect 3 0 1 0;
#X connect 3 0 43 1;
#X connect 4 0 1 0;
#X connect 4 0 43 1;
#X connect 5 0 45 1;
#X connect 6 0 55 0;
#X connect 7 0 23 0;
#X connect 7 0 26 0;
#X connect 8 0 7 0;
#X connect 9 0 1 0;
#X connect 9 0 43 1;
#X connect 10 0 1 0;
#X connect 10 0 43 1;
#X connect 11 0 1 0;
#X connect 11 0 43 1;
#X connect 12 0 1 0;
#X connect 12 0 43 1;
#X connect 13 0 35 0;
#X connect 14 0 28 0;
#X connect 15 0 44 0;
#X connect 16 0 15 0;
#X connect 16 0 43 0;
#X connect 17 0 15 1;
#X connect 18 0 6 0;
#X connect 19 0 20 0;
#X connect 20 0 21 0;
#X connect 21 0 22 0;
#X connect 22 0 5 0;
#X connect 23 0 24 0;
#X connect 24 0 27 0;
#X connect 25 0 27 0;
#X connect 26 0 25 0;
#X connect 27 0 28 1;
#X connect 28 0 45 0;
#X connect 29 0 46 0;
#X connect 29 0 58 0;
#X connect 29 0 30 0;
#X connect 29 0 31 0;
#X connect 29 0 34 0;
#X connect 29 0 49 0;
#X connect 30 0 23 3;
#X connect 31 0 26 1;
#X connect 32 0 16 0;
#X connect 32 0 8 0;
#X connect 33 0 34 0;
#X connect 34 0 2 0;
#X connect 34 0 17 0;
#X connect 34 0 49 0;
#X connect 36 0 13 0;
#X connect 36 0 51 0;
#X connect 36 0 57 0;
#X connect 38 0 52 0;
#X connect 40 0 54 0;
#X connect 40 0 56 0;
#X connect 42 0 53 0;
#X connect 43 0 18 0;
#X connect 44 0 15 1;
#X connect 44 0 18 1;
#X connect 44 0 19 0;
#X connect 45 0 59 0;
#X connect 46 0 23 1;
#X connect 47 0 0 0;
#X connect 48 0 0 1;
#X connect 49 0 50 0;
#X connect 50 0 9 0;
#X connect 50 1 10 0;
#X connect 50 2 11 0;
#X connect 50 3 3 0;
#X connect 50 4 4 0;
#X connect 50 5 12 0;
#X connect 51 0 39 0;
#X connect 52 0 41 0;
#X connect 53 0 48 0;
#X connect 54 0 47 0;
#X connect 55 0 14 0;
#X connect 56 0 39 0;
#X connect 56 0 41 0;
#X connect 57 0 37 0;
#X connect 58 0 23 2;
#X connect 59 0 35 0;
