#N canvas 629 29 1224 956 10;
#X obj 416 888 dac~;
#X obj 394 853 *~ 0.5;
#X obj 367 686 delread~ delay 125;
#X obj 802 425 sendOSC;
#X floatatom 779 330 5 0 0 0 - - -;
#X obj 988 182 print;
#X floatatom 1000 342 0 0 0 0 - - -;
#X msg 1003 316 disconnect;
#X floatatom 983 421 0 0 0 0 - - -;
#X msg 983 288 connect localhost 57121;
#X obj 983 394 netsend 1;
#X msg 802 294 disconnect;
#X msg 819 395 connect localhost 57121;
#X obj 134 30 dumpOSC 57110;
#X msg 778 356 send /fader1/out/\$1;
#X msg 1000 369 send /fader1/out/\$1;
#X obj 134 238 counter;
#X floatatom 134 259 5 0 0 0 - - -;
#X obj 134 56 OSCroute /system;
#X obj 134 78 unpack s 0;
#X symbolatom 134 100 10 0 0 0 - - -;
#X obj 134 123 sel play stop;
#X obj 374 851 vsl 15 50 0 1 0 0 empty empty empty 0 -9 0 10 -262144
-1 -1 1470 1;
#X obj 482 425 osc~;
#X obj 204 79 nbx 5 14 -1e+037 1e+037 0 0 empty empty empty 0 -8 0
10 -262144 -1 -1 0 256;
#X obj 367 629 *~;
#X msg 204 358 0;
#X obj 233 143 nbx 5 14 -1e+037 1e+037 0 0 empty empty empty 0 -8 0
10 -262144 -1 -1 0 256;
#X obj 233 123 div;
#X msg 512 332 370;
#X msg 522 352 400;
#X obj 482 244 sel 0 1 2 3 4 5 6 7 8 9 10 11;
#X obj 233 103 expr $f1 * 12 / 1640;
#X floatatom 134 336 5 0 0 0 - - -;
#X obj 134 315 clip 0 1;
#X obj 449 425 osc~;
#X floatatom 482 390 5 0 0 0 - - -;
#X floatatom 252 359 5 0 0 0 - - -;
#N canvas 289 420 365 458 adsr 0;
#X floatatom 128 108 5 0 0 0 - - -;
#X floatatom 129 127 5 0 0 0 - - -;
#X floatatom 127 149 5 0 0 0 - - -;
#X floatatom 127 173 5 0 0 0 - - -;
#X obj 33 217 pack f f f f;
#X msg 30 245 1 \$2 \, \$4 \, \$3 \, \$2;
#X msg 143 245 0 \$2;
#X obj 129 218 pack f f;
#X obj 91 279 line~;
#X obj 78 354 outlet~;
#X obj 77 327 *~;
#X obj 44 302 inlet~;
#X obj 166 109 hsl 70 15 0 300 0 0 empty empty empty -2 -8 0 10 -262144
-1 -1 1104 1;
#X obj 167 128 hsl 70 15 0 500 0 0 empty empty empty -2 -8 0 10 -262144
-1 -1 5989 1;
#X obj 167 149 hsl 70 15 0 1 0 0 empty empty empty -2 -8 0 10 -262144
-1 -1 1808 1;
#X obj 168 172 hsl 70 15 0 1000 0 0 empty empty empty -2 -8 0 10 -262144
-1 -1 6210 1;
#X obj 248 58 inlet;
#X text 107 106 A;
#X text 107 125 D;
#X text 108 148 S;
#X text 108 171 R;
#X obj 33 186 inlet;
#X obj 289 57 loadbang;
#X msg 263 101 48;
#X msg 262 126 434;
#X msg 258 151 0.262;
#X msg 261 175 900;
#X connect 0 0 4 1;
#X connect 1 0 4 2;
#X connect 2 0 4 3;
#X connect 3 0 7 1;
#X connect 4 0 5 0;
#X connect 5 0 8 0;
#X connect 6 0 8 0;
#X connect 7 0 6 0;
#X connect 8 0 10 1;
#X connect 10 0 9 0;
#X connect 11 0 10 0;
#X connect 12 0 0 0;
#X connect 13 0 1 0;
#X connect 14 0 2 0;
#X connect 15 0 3 0;
#X connect 16 0 23 0;
#X connect 16 0 24 0;
#X connect 16 0 25 0;
#X connect 16 0 26 0;
#X connect 21 0 4 0;
#X connect 21 0 7 0;
#X connect 22 0 23 0;
#X connect 22 0 24 0;
#X connect 22 0 25 0;
#X connect 22 0 26 0;
#X connect 23 0 12 0;
#X connect 24 0 13 0;
#X connect 25 0 14 0;
#X connect 26 0 15 0;
#X coords 0 -1 1 1 150 100 2 100 100;
#X restore 395 502 pd adsr;
#X obj 395 483 tgl 15 0 empty empty empty 17 7 0 10 -262144 -1 -1 0
1;
#X msg 216 336 1;
#X msg 482 272 460;
#X msg 492 292 300;
#X msg 502 312 340;
#X msg 532 372 438;
#X obj 366 662 delwrite~ delay 15000;
#X obj 438 712 *~ 0.2;
#X obj 554 662 delwrite~ delay2 15000;
#X obj 554 686 delread~ delay2 125;
#X obj 631 708 *~ 0.8;
#X obj 345 718 *~;
#X obj 345 662 vsl 15 50 0 1 0 0 empty empty empty 0 -9 0 10 -262144
-1 -1 1470 1;
#X obj 346 599 vsl 15 50 0 1 0 0 empty empty empty 0 -9 0 10 -262144
-1 -1 1470 1;
#X obj 534 716 *~;
#X obj 534 658 vsl 15 50 0 1 0 0 empty empty empty 0 -9 0 10 -262144
-1 -1 1470 1;
#X obj 443 852 *~ 0.5;
#X obj 325 809 *~;
#X obj 325 753 vsl 15 50 0 1 0 0 empty empty empty 0 -9 0 10 -262144
-1 -1 1470 1;
#X obj 519 806 *~;
#X obj 355 808 *~ 0.8;
#X obj 345 758 delwrite~ delay3 15000;
#X obj 346 781 delread~ delay3 125;
#X obj 533 760 delwrite~ delay4 15000;
#X obj 534 784 delread~ delay4 125;
#X obj 450 403 *~;
#X obj 450 347 vsl 15 50 0 1 0 0 empty empty empty 0 -9 0 10 -262144
-1 -1 1470 1;
#X floatatom 369 294 5 0 0 0 - - -;
#X obj 252 336 expr $f2 / $f1 * $f3;
#X obj 369 273 random 25;
#X obj 538 484 bng 15 250 50 0 empty empty empty 17 7 0 10 -262144
-1 -1;
#X obj 369 313 + 1;
#X obj 381 608 *~;
#X obj 134 293 expr (($f1 * 100 / 200) * 0.01) + 0.2;
#X obj 466 481 *~;
#X obj 362 423 nbx 5 14 -1e+037 1e+037 0 0 empty empty empty 0 -8 0
10 -262144 -1 -1 0.3 256;
#X msg 618 508 0.3;
#X obj 618 486 loadbang;
#X obj 52 193 r play;
#X text 364 102 width - should be responsive;
#X obj 217 194 r stop;
#X obj 199 678 osc~ 440;
#X msg 664 513 \; pd dsp 1;
#X connect 1 0 0 0;
#X connect 2 0 46 0;
#X connect 2 0 50 1;
#X connect 2 0 49 0;
#X connect 4 0 14 0;
#X connect 6 0 15 0;
#X connect 7 0 10 0;
#X connect 9 0 10 0;
#X connect 10 0 8 0;
#X connect 11 0 3 0;
#X connect 12 0 3 0;
#X connect 13 0 18 0;
#X connect 14 0 3 0;
#X connect 15 0 10 0;
#X connect 16 0 17 0;
#X connect 17 0 67 0;
#X connect 17 0 72 0;
#X connect 18 0 19 0;
#X connect 19 0 20 0;
#X connect 19 1 24 0;
#X connect 20 0 21 0;
#X connect 21 0 16 0;
#X connect 21 0 40 0;
#X connect 21 1 16 2;
#X connect 21 1 26 0;
#X connect 21 1 68 0;
#X connect 22 0 1 1;
#X connect 22 0 55 1;
#X connect 23 0 73 1;
#X connect 24 0 32 0;
#X connect 25 0 45 0;
#X connect 26 0 39 0;
#X connect 27 0 31 0;
#X connect 28 0 27 0;
#X connect 29 0 36 0;
#X connect 30 0 36 0;
#X connect 31 0 41 0;
#X connect 31 1 42 0;
#X connect 31 2 43 0;
#X connect 31 3 29 0;
#X connect 31 4 30 0;
#X connect 31 5 44 0;
#X connect 31 6 41 0;
#X connect 31 7 42 0;
#X connect 31 8 43 0;
#X connect 31 9 29 0;
#X connect 31 10 30 0;
#X connect 31 11 44 0;
#X connect 32 0 28 0;
#X connect 33 0 71 0;
#X connect 34 0 33 0;
#X connect 35 0 64 1;
#X connect 36 0 23 0;
#X connect 36 0 67 1;
#X connect 37 0 35 0;
#X connect 38 0 71 1;
#X connect 39 0 38 0;
#X connect 40 0 39 0;
#X connect 41 0 36 0;
#X connect 42 0 36 0;
#X connect 43 0 36 0;
#X connect 44 0 36 0;
#X connect 46 0 45 0;
#X connect 48 0 53 1;
#X connect 49 0 47 0;
#X connect 50 0 60 0;
#X connect 51 0 50 0;
#X connect 52 0 25 0;
#X connect 53 0 62 0;
#X connect 54 0 53 0;
#X connect 55 0 0 1;
#X connect 56 0 1 0;
#X connect 57 0 56 0;
#X connect 57 0 58 0;
#X connect 58 0 55 0;
#X connect 59 0 60 0;
#X connect 59 0 62 0;
#X connect 61 0 56 1;
#X connect 61 0 59 0;
#X connect 63 0 58 1;
#X connect 64 0 73 0;
#X connect 65 0 64 0;
#X connect 65 0 74 0;
#X connect 66 0 70 0;
#X connect 67 0 37 0;
#X connect 68 0 66 0;
#X connect 69 0 38 2;
#X connect 70 0 67 2;
#X connect 71 0 25 1;
#X connect 72 0 34 0;
#X connect 73 0 38 1;
#X connect 75 0 65 0;
#X connect 75 0 52 0;
#X connect 75 0 51 0;
#X connect 75 0 54 0;
#X connect 75 0 57 0;
#X connect 75 0 22 0;
#X connect 76 0 75 0;
#X connect 76 0 81 0;
#X connect 77 0 16 0;
#X connect 77 0 40 0;
#X connect 79 0 16 2;
#X connect 79 0 26 0;
#X connect 79 0 68 0;
